<svg width="1635" height="500" viewBox="0 0 1635 500" fill="none" xmlns="http://www.w3.org/2000/svg">
<path d="M274 99V338C274 399.856 223.856 450 162 450V450C100.144 450 50 399.856 50 338L50 324.112" stroke="#303030" stroke-width="100"/>
<rect y="100" width="100" height="100" rx="50" fill="#663BCB"/>
<rect x="112" y="50" width="100" height="150" rx="50" fill="#663BCB"/>
<rect x="224" width="100" height="200" rx="50" fill="#663BCB"/>
<path d="M0.5 300C0.5 272.662 22.6619 250.5 50 250.5C77.3381 250.5 99.5 272.662 99.5 300V329.5H0.5V300Z" fill="#303030" stroke="#303030"/>
<path d="M622.242 198.959V311.459C622.242 321.225 621.803 329.525 620.924 336.361C620.143 343.197 618.287 350.131 615.357 357.162C610.475 368.979 602.418 378.207 591.188 384.848C579.957 391.391 566.285 394.662 550.172 394.662C535.621 394.662 523.463 392.367 513.697 387.777C504.029 383.188 496.217 375.766 490.26 365.512C487.135 360.043 484.596 353.744 482.643 346.615C480.689 339.486 479.713 332.699 479.713 326.254C479.713 319.418 481.617 314.193 485.426 310.58C489.234 306.967 494.117 305.16 500.074 305.16C505.836 305.16 510.182 306.82 513.111 310.141C516.041 313.461 518.287 318.637 519.85 325.668C521.51 333.188 523.17 339.193 524.83 343.686C526.49 348.178 529.273 352.035 533.18 355.258C537.086 358.48 542.652 360.092 549.879 360.092C569.117 360.092 578.736 345.98 578.736 317.758V198.959C578.736 190.17 580.641 183.578 584.449 179.184C588.355 174.789 593.629 172.592 600.27 172.592C607.008 172.592 612.33 174.789 616.236 179.184C620.24 183.578 622.242 190.17 622.242 198.959ZM778.248 323.178H700.025C700.123 332.26 701.93 340.268 705.445 347.201C709.059 354.135 713.795 359.359 719.654 362.875C725.611 366.391 732.154 368.148 739.283 368.148C744.068 368.148 748.414 367.611 752.32 366.537C756.324 365.365 760.182 363.607 763.893 361.264C767.604 358.822 771.021 356.234 774.146 353.5C777.271 350.766 781.324 347.055 786.305 342.367C788.355 340.609 791.285 339.73 795.094 339.73C799.195 339.73 802.516 340.854 805.055 343.1C807.594 345.346 808.863 348.52 808.863 352.621C808.863 356.234 807.447 360.482 804.615 365.365C801.783 370.15 797.486 374.789 791.725 379.281C786.061 383.676 778.883 387.338 770.191 390.268C761.598 393.197 751.686 394.662 740.455 394.662C714.771 394.662 694.801 387.338 680.543 372.689C666.285 358.041 659.156 338.168 659.156 313.07C659.156 301.254 660.914 290.316 664.43 280.258C667.945 270.102 673.072 261.41 679.811 254.184C686.549 246.957 694.85 241.439 704.713 237.631C714.576 233.725 725.514 231.771 737.525 231.771C753.15 231.771 766.529 235.092 777.662 241.732C788.893 248.275 797.291 256.771 802.857 267.221C808.424 277.67 811.207 288.314 811.207 299.154C811.207 309.213 808.326 315.756 802.564 318.783C796.803 321.713 788.697 323.178 778.248 323.178ZM700.025 300.473H772.535C771.559 286.801 767.848 276.596 761.402 269.857C755.055 263.021 746.656 259.604 736.207 259.604C726.246 259.604 718.043 263.07 711.598 270.004C705.25 276.84 701.393 286.996 700.025 300.473ZM881.373 254.184V259.018C888.404 249.74 896.07 242.953 904.371 238.656C912.77 234.262 922.389 232.064 933.229 232.064C943.775 232.064 953.199 234.359 961.5 238.949C969.801 243.539 976.002 250.033 980.104 258.432C982.74 263.314 984.449 268.588 985.23 274.252C986.012 279.916 986.402 287.143 986.402 295.932V370.346C986.402 378.354 984.547 384.408 980.836 388.51C977.223 392.611 972.486 394.662 966.627 394.662C960.67 394.662 955.836 392.562 952.125 388.363C948.414 384.164 946.559 378.158 946.559 370.346V303.695C946.559 290.512 944.703 280.453 940.992 273.52C937.379 266.488 930.104 262.973 919.166 262.973C912.037 262.973 905.543 265.121 899.684 269.418C893.824 273.617 889.527 279.428 886.793 286.85C884.84 292.807 883.863 303.939 883.863 320.248V370.346C883.863 378.451 881.959 384.555 878.15 388.656C874.439 392.66 869.605 394.662 863.648 394.662C857.887 394.662 853.15 392.562 849.439 388.363C845.729 384.164 843.873 378.158 843.873 370.346V254.77C843.873 247.152 845.533 241.488 848.854 237.777C852.174 233.969 856.715 232.064 862.477 232.064C865.992 232.064 869.166 232.895 871.998 234.555C874.83 236.215 877.076 238.705 878.736 242.025C880.494 245.346 881.373 249.398 881.373 254.184ZM1066.68 255.941V391.586C1066.68 401.254 1066.33 409.115 1065.65 415.17C1065.06 421.322 1064.19 425.766 1063.01 428.5C1056.37 445.492 1042.26 453.988 1020.68 453.988C1008.57 453.988 999.391 452.328 993.141 449.008C986.891 445.688 983.766 440.854 983.766 434.506C983.766 429.818 985.182 425.961 988.014 422.934C990.846 420.004 994.557 418.539 999.146 418.539C999.732 418.539 1000.71 418.588 1002.08 418.686C1003.35 418.881 1005.25 419.076 1007.79 419.271C1010.43 419.467 1012.23 419.564 1013.21 419.564C1018.58 419.564 1022.14 417.465 1023.9 413.266C1025.76 409.066 1026.69 401.547 1026.69 390.707V255.941C1026.69 248.031 1028.54 242.074 1032.25 238.07C1035.96 234.066 1040.85 232.064 1046.9 232.064C1052.76 232.064 1057.5 234.066 1061.11 238.07C1064.82 241.977 1066.68 247.934 1066.68 255.941ZM1046.9 213.461C1041.33 213.461 1036.55 211.752 1032.54 208.334C1028.64 204.916 1026.69 200.082 1026.69 193.832C1026.69 188.168 1028.69 183.529 1032.69 179.916C1036.79 176.205 1041.53 174.35 1046.9 174.35C1052.08 174.35 1056.67 176.01 1060.67 179.33C1064.67 182.65 1066.68 187.484 1066.68 193.832C1066.68 199.984 1064.72 204.818 1060.82 208.334C1056.91 211.752 1052.27 213.461 1046.9 213.461ZM1208.91 372.104C1199.24 379.623 1189.87 385.287 1180.79 389.096C1171.8 392.807 1161.7 394.662 1150.46 394.662C1140.21 394.662 1131.18 392.66 1123.37 388.656C1115.65 384.555 1109.69 379.037 1105.49 372.104C1101.29 365.17 1099.2 357.65 1099.2 349.545C1099.2 338.607 1102.66 329.281 1109.6 321.566C1116.53 313.852 1126.05 308.676 1138.16 306.039C1140.7 305.453 1147 304.135 1157.06 302.084C1167.12 300.033 1175.71 298.178 1182.84 296.518C1190.06 294.76 1197.88 292.66 1206.28 290.219C1205.79 279.672 1203.64 271.957 1199.83 267.074C1196.12 262.094 1188.36 259.604 1176.54 259.604C1166.38 259.604 1158.72 261.02 1153.54 263.852C1148.46 266.684 1144.07 270.932 1140.36 276.596C1136.74 282.26 1134.16 286.02 1132.59 287.875C1131.13 289.633 1127.91 290.512 1122.93 290.512C1118.43 290.512 1114.53 289.096 1111.21 286.264C1107.98 283.334 1106.37 279.623 1106.37 275.131C1106.37 268.1 1108.86 261.264 1113.84 254.623C1118.82 247.982 1126.59 242.514 1137.13 238.217C1147.68 233.92 1160.82 231.771 1176.54 231.771C1194.12 231.771 1207.94 233.871 1217.99 238.07C1228.05 242.172 1235.13 248.715 1239.23 257.699C1243.43 266.684 1245.53 278.598 1245.53 293.441C1245.53 302.816 1245.48 310.775 1245.39 317.318C1245.39 323.861 1245.34 331.137 1245.24 339.145C1245.24 346.664 1246.46 354.525 1248.9 362.729C1251.44 370.834 1252.71 376.059 1252.71 378.402C1252.71 382.504 1250.76 386.264 1246.85 389.682C1243.04 393.002 1238.7 394.662 1233.81 394.662C1229.71 394.662 1225.66 392.758 1221.66 388.949C1217.65 385.043 1213.4 379.428 1208.91 372.104ZM1206.28 314.242C1200.42 316.391 1191.87 318.686 1180.64 321.127C1169.51 323.471 1161.79 325.229 1157.5 326.4C1153.2 327.475 1149.1 329.672 1145.19 332.992C1141.29 336.215 1139.33 340.756 1139.33 346.615C1139.33 352.67 1141.63 357.846 1146.22 362.143C1150.81 366.342 1156.81 368.441 1164.23 368.441C1172.14 368.441 1179.42 366.732 1186.06 363.314C1192.8 359.799 1197.73 355.307 1200.86 349.838C1204.47 343.783 1206.28 333.822 1206.28 319.955V314.242ZM1322.58 254.184V259.018C1329.62 249.74 1337.28 242.953 1345.58 238.656C1353.98 234.262 1363.6 232.064 1374.44 232.064C1384.99 232.064 1394.41 234.359 1402.71 238.949C1411.01 243.539 1417.21 250.033 1421.31 258.432C1423.95 263.314 1425.66 268.588 1426.44 274.252C1427.22 279.916 1427.61 287.143 1427.61 295.932V370.346C1427.61 378.354 1425.76 384.408 1422.05 388.51C1418.43 392.611 1413.7 394.662 1407.84 394.662C1401.88 394.662 1397.05 392.562 1393.34 388.363C1389.62 384.164 1387.77 378.158 1387.77 370.346V303.695C1387.77 290.512 1385.91 280.453 1382.2 273.52C1378.59 266.488 1371.31 262.973 1360.38 262.973C1353.25 262.973 1346.75 265.121 1340.89 269.418C1335.04 273.617 1330.74 279.428 1328 286.85C1326.05 292.807 1325.07 303.939 1325.07 320.248V370.346C1325.07 378.451 1323.17 384.555 1319.36 388.656C1315.65 392.66 1310.82 394.662 1304.86 394.662C1299.1 394.662 1294.36 392.562 1290.65 388.363C1286.94 384.164 1285.08 378.158 1285.08 370.346V254.77C1285.08 247.152 1286.74 241.488 1290.06 237.777C1293.38 233.969 1297.93 232.064 1303.69 232.064C1307.2 232.064 1310.38 232.895 1313.21 234.555C1316.04 236.215 1318.29 238.705 1319.95 242.025C1321.71 245.346 1322.58 249.398 1322.58 254.184ZM1614.67 261.361V377.523C1614.67 390.805 1613.26 402.23 1610.43 411.801C1607.59 421.371 1603.05 429.281 1596.8 435.531C1590.55 441.781 1582.35 446.42 1572.19 449.447C1562.13 452.475 1549.59 453.988 1534.55 453.988C1520.78 453.988 1508.47 452.035 1497.63 448.129C1486.79 444.32 1478.44 439.34 1472.58 433.188C1466.72 427.133 1463.79 420.883 1463.79 414.438C1463.79 409.555 1465.46 405.551 1468.78 402.426C1472.1 399.398 1476.1 397.885 1480.79 397.885C1486.65 397.885 1491.77 400.473 1496.17 405.648C1498.32 408.285 1500.51 410.922 1502.76 413.559C1505.1 416.293 1507.64 418.588 1510.38 420.443C1513.21 422.396 1516.58 423.812 1520.48 424.691C1524.39 425.668 1528.88 426.156 1533.96 426.156C1544.31 426.156 1552.32 424.691 1557.98 421.762C1563.75 418.93 1567.75 414.926 1570 409.75C1572.34 404.574 1573.71 399.008 1574.1 393.051C1574.49 387.191 1574.78 377.719 1574.98 364.633C1568.82 373.227 1561.7 379.77 1553.59 384.262C1545.58 388.754 1536.01 391 1524.88 391C1511.5 391 1499.78 387.582 1489.72 380.746C1479.76 373.91 1472.1 364.34 1466.72 352.035C1461.35 339.73 1458.67 325.521 1458.67 309.408C1458.67 297.396 1460.28 286.557 1463.5 276.889C1466.82 267.221 1471.51 259.066 1477.56 252.426C1483.62 245.785 1490.6 240.805 1498.51 237.484C1506.42 234.066 1515.11 232.357 1524.59 232.357C1535.91 232.357 1545.73 234.555 1554.03 238.949C1562.33 243.246 1570.04 250.033 1577.17 259.311V253.891C1577.17 246.957 1578.88 241.586 1582.3 237.777C1585.72 233.969 1590.11 232.064 1595.48 232.064C1603.2 232.064 1608.33 234.604 1610.87 239.682C1613.4 244.662 1614.67 251.889 1614.67 261.361ZM1498.8 312.045C1498.8 328.256 1502.32 340.512 1509.35 348.812C1516.48 357.113 1525.66 361.264 1536.89 361.264C1543.53 361.264 1549.78 359.506 1555.64 355.99C1561.6 352.377 1566.43 347.006 1570.14 339.877C1573.85 332.65 1575.71 323.91 1575.71 313.656C1575.71 297.348 1572.1 284.652 1564.87 275.57C1557.74 266.488 1548.32 261.947 1536.6 261.947C1525.17 261.947 1515.99 266.293 1509.06 274.984C1502.22 283.676 1498.8 296.029 1498.8 312.045Z" fill="#303030"/>
<circle cx="1047" cy="194" r="21" fill="#663BCB"/>
</svg>
