<svg width="42" height="42" viewBox="0 0 42 42" fill="none" xmlns="http://www.w3.org/2000/svg">
<path d="M0 21C0 9.40202 9.40202 0 21 0C32.598 0 42 9.40202 42 21C42 32.598 32.598 42 21 42C9.40202 42 0 32.598 0 21Z" fill="#F4F4F4"/>
<g clip-path="url(#clip0_404_1853)">
<path d="M23.1558 21.0388C22.7963 21.1794 22.3982 21.1648 22.0471 20.9937L15.757 17.9698C15.4481 17.8213 15.4452 17.3825 15.7522 17.2299L21.9477 14.1498C22.3355 13.9594 22.7803 13.9594 23.1681 14.1498L23.1618 13.3788L22.5318 13.0695C21.5607 12.5929 20.4249 12.5929 19.4538 13.0695L13.7956 15.8472C12.3358 16.5638 12.339 18.654 13.8009 19.3662L19.4633 22.1247C20.4291 22.5952 21.5564 22.5952 22.5223 22.1247L23.1356 21.7637L23.1558 21.0388Z" fill="#C9C1FA"/>
<path d="M21.0284 29.9937C20.5453 29.9937 20.0629 29.9114 19.6052 29.7472L16.3509 28.5794C15.1206 28.138 14.3624 26.9224 14.507 25.6233L14.7781 23.1894C14.821 22.8039 15.1686 22.526 15.554 22.569C15.9397 22.6119 16.2175 22.9593 16.1745 23.345L15.9035 25.7789C15.8312 26.4284 16.2103 27.0362 16.8254 27.2569L20.0798 28.4246C20.6731 28.6375 21.3289 28.6439 21.9264 28.4426L25.4976 27.2202C25.6686 27.1583 25.8231 27.0705 25.9448 26.9661C26.2393 26.7133 26.6828 26.7472 26.9355 27.0416C27.1882 27.3361 27.1544 27.7796 26.8599 28.0323C26.6086 28.248 26.3001 28.4251 25.9679 28.5443C25.9646 28.5454 22.3782 29.773 22.3782 29.773C21.9414 29.9202 21.4846 29.9937 21.0284 29.9937ZM22.8307 22.7558L23.6899 22.3359C24.0385 22.1655 24.183 21.7448 24.0126 21.3962C23.8422 21.0476 23.4215 20.9033 23.0729 21.0735L22.2145 21.493C21.438 21.8713 20.5474 21.8713 19.7709 21.493L14.1085 18.7346C13.6688 18.5204 13.4059 18.099 13.4051 17.6073C13.4044 17.1156 13.6661 16.6934 14.1052 16.4778L19.7633 13.7002C20.5445 13.3166 21.4407 13.3166 22.2221 13.7002L27.8802 16.4778C28.3016 16.6847 28.5681 17.0918 28.5929 17.5669C28.6172 18.0313 28.4071 18.4497 28.0309 18.686C27.7023 18.8923 27.6033 19.326 27.8097 19.6546C28.0161 19.9831 28.4498 20.0822 28.7783 19.8758C29.5921 19.3646 30.0473 18.474 29.996 17.4935C29.9442 16.5023 29.3847 15.6511 28.4994 15.2165L22.8413 12.4389C21.6665 11.8622 20.3189 11.8622 19.1441 12.4389L13.486 15.2165C12.5678 15.6672 11.9985 16.5841 12 17.6094C12.0015 18.6347 12.5737 19.5499 13.4932 19.9978L19.1555 22.7562C19.7392 23.0406 20.3657 23.1828 20.9925 23.1828C21.6193 23.1828 22.2464 23.0405 22.8307 22.7558Z" fill="#161330"/>
<path d="M25.327 18.9142L22.0486 17.2972C21.9319 16.8421 21.5191 16.5058 21.0277 16.5058C20.4457 16.5058 19.9739 16.9777 19.9739 17.5597C19.9739 18.1417 20.4457 18.6135 21.0277 18.6135C21.1596 18.6135 21.2858 18.5893 21.4021 18.545L24.7054 20.1743C25.1887 20.4127 25.4889 20.8956 25.4889 21.4345V24.6906C25.4889 25.0786 25.8035 25.3931 26.1915 25.3931C26.5795 25.3931 26.894 25.0786 26.894 24.6906V21.4345C26.894 20.3566 26.2936 19.3909 25.327 18.9142Z" fill="#705DEF"/>
</g>
<defs>
<clipPath id="clip0_404_1853">
<rect width="18" height="18" fill="white" transform="translate(12 12)"/>
</clipPath>
</defs>
</svg>
